<mxfile host="Electron" agent="Mozilla/5.0 (Windows NT 10.0; Win64; x64) AppleWebKit/537.36 (KHTML, like Gecko) draw.io/26.0.9 Chrome/128.0.6613.186 Electron/32.2.5 Safari/537.36" version="26.0.9">
  <diagram name="Page-1" id="1f4frj1IumFev-JVh3TB">
    <mxGraphModel dx="1687" dy="984" grid="1" gridSize="10" guides="1" tooltips="1" connect="1" arrows="1" fold="1" page="1" pageScale="1" pageWidth="1169" pageHeight="827" math="0" shadow="0">
      <root>
        <mxCell id="0" />
        <mxCell id="1" parent="0" />
        <mxCell id="nnQvtGdqVhCBiGd7Ad1P-1" value="" style="rounded=0;whiteSpace=wrap;html=1;strokeColor=#000000;strokeWidth=2;fillColor=#CCCCCC;" vertex="1" parent="1">
          <mxGeometry x="440" y="240" width="240" height="280" as="geometry" />
        </mxCell>
        <mxCell id="nnQvtGdqVhCBiGd7Ad1P-2" value="&lt;font style=&quot;font-size: 14px;&quot;&gt;&lt;b&gt;analogový senzor&lt;/b&gt;&lt;/font&gt;&lt;div&gt;&lt;font style=&quot;font-size: 14px;&quot;&gt;&lt;b&gt;(&lt;/b&gt;&lt;/font&gt;&lt;b style=&quot;background-color: transparent; color: light-dark(rgb(0, 0, 0), rgb(255, 255, 255)); font-size: 14px;&quot;&gt;Pt1000)&lt;/b&gt;&lt;/div&gt;" style="rounded=0;whiteSpace=wrap;html=1;fillColor=#d5e8d4;strokeColor=#82b366;strokeWidth=2;" vertex="1" parent="1">
          <mxGeometry x="80" y="350" width="160" height="60" as="geometry" />
        </mxCell>
        <mxCell id="nnQvtGdqVhCBiGd7Ad1P-3" value="" style="endArrow=classic;html=1;rounded=0;entryX=0;entryY=0.5;entryDx=0;entryDy=0;exitX=1;exitY=0.5;exitDx=0;exitDy=0;fillColor=#d5e8d4;strokeColor=#82b366;strokeWidth=2;" edge="1" parent="1" source="nnQvtGdqVhCBiGd7Ad1P-2" target="nnQvtGdqVhCBiGd7Ad1P-4">
          <mxGeometry width="50" height="50" relative="1" as="geometry">
            <mxPoint x="220" y="450" as="sourcePoint" />
            <mxPoint x="380" y="430" as="targetPoint" />
          </mxGeometry>
        </mxCell>
        <mxCell id="nnQvtGdqVhCBiGd7Ad1P-4" value="&lt;font style=&quot;font-size: 14px;&quot;&gt;&lt;b&gt;A-D&lt;/b&gt;&lt;/font&gt;&lt;div&gt;&lt;font style=&quot;font-size: 14px;&quot;&gt;&lt;b&gt;převodník&lt;/b&gt;&lt;/font&gt;&lt;/div&gt;" style="rounded=0;whiteSpace=wrap;html=1;fillColor=#d5e8d4;strokeColor=#82b366;strokeWidth=2;" vertex="1" parent="1">
          <mxGeometry x="460" y="355" width="80" height="50" as="geometry" />
        </mxCell>
        <mxCell id="nnQvtGdqVhCBiGd7Ad1P-5" value="&lt;b&gt;&lt;font style=&quot;font-size: 14px;&quot;&gt;obvod reálného času&lt;/font&gt;&lt;/b&gt;&lt;div&gt;&lt;b&gt;&lt;font style=&quot;font-size: 14px;&quot;&gt;(&lt;/font&gt;&lt;/b&gt;&lt;b style=&quot;background-color: transparent; color: light-dark(rgb(0, 0, 0), rgb(255, 255, 255));&quot;&gt;&lt;font style=&quot;font-size: 14px;&quot;&gt;DS3231)&lt;/font&gt;&lt;/b&gt;&lt;/div&gt;" style="rounded=0;whiteSpace=wrap;html=1;fillColor=#dae8fc;strokeColor=#6c8ebf;" vertex="1" parent="1">
          <mxGeometry x="80" y="430" width="160" height="60" as="geometry" />
        </mxCell>
        <mxCell id="nnQvtGdqVhCBiGd7Ad1P-7" value="&lt;font style=&quot;font-size: 14px;&quot;&gt;&lt;b&gt;I2C&lt;/b&gt;&lt;/font&gt;&lt;div&gt;&lt;font style=&quot;font-size: 14px;&quot;&gt;&lt;b&gt;periferie&lt;/b&gt;&lt;/font&gt;&lt;/div&gt;" style="rounded=0;whiteSpace=wrap;html=1;fillColor=#dae8fc;strokeColor=#6c8ebf;strokeWidth=2;" vertex="1" parent="1">
          <mxGeometry x="460" y="435" width="80" height="50" as="geometry" />
        </mxCell>
        <mxCell id="nnQvtGdqVhCBiGd7Ad1P-8" value="" style="endArrow=classic;html=1;rounded=0;exitX=1;exitY=0.5;exitDx=0;exitDy=0;entryX=0;entryY=0.5;entryDx=0;entryDy=0;startFill=1;startArrow=classic;endFill=1;fillColor=#dae8fc;strokeColor=#6c8ebf;strokeWidth=2;" edge="1" parent="1" source="nnQvtGdqVhCBiGd7Ad1P-5" target="nnQvtGdqVhCBiGd7Ad1P-7">
          <mxGeometry width="50" height="50" relative="1" as="geometry">
            <mxPoint x="380" y="440" as="sourcePoint" />
            <mxPoint x="430" y="390" as="targetPoint" />
          </mxGeometry>
        </mxCell>
        <mxCell id="nnQvtGdqVhCBiGd7Ad1P-9" value="&lt;font style=&quot;font-size: 14px;&quot;&gt;&lt;b&gt;SDHC karta&lt;/b&gt;&lt;/font&gt;" style="rounded=0;whiteSpace=wrap;html=1;fillColor=#fff2cc;strokeColor=#d6b656;strokeWidth=2;" vertex="1" parent="1">
          <mxGeometry x="840" y="400" width="160" height="40" as="geometry" />
        </mxCell>
        <mxCell id="nnQvtGdqVhCBiGd7Ad1P-11" value="&lt;font style=&quot;font-size: 14px;&quot;&gt;&lt;b&gt;jádro&lt;/b&gt;&lt;/font&gt;" style="rounded=0;whiteSpace=wrap;html=1;fillColor=#f5f5f5;fontColor=#333333;strokeColor=#666666;strokeWidth=2;" vertex="1" parent="1">
          <mxGeometry x="570" y="400" width="80" height="40" as="geometry" />
        </mxCell>
        <mxCell id="nnQvtGdqVhCBiGd7Ad1P-12" value="" style="endArrow=classic;html=1;rounded=0;exitX=1;exitY=0.5;exitDx=0;exitDy=0;entryX=0.5;entryY=0;entryDx=0;entryDy=0;strokeWidth=2;" edge="1" parent="1" source="nnQvtGdqVhCBiGd7Ad1P-4" target="nnQvtGdqVhCBiGd7Ad1P-11">
          <mxGeometry width="50" height="50" relative="1" as="geometry">
            <mxPoint x="570" y="410" as="sourcePoint" />
            <mxPoint x="620" y="360" as="targetPoint" />
            <Array as="points">
              <mxPoint x="610" y="380" />
            </Array>
          </mxGeometry>
        </mxCell>
        <mxCell id="nnQvtGdqVhCBiGd7Ad1P-13" value="" style="endArrow=classic;html=1;rounded=0;exitX=1;exitY=0.5;exitDx=0;exitDy=0;entryX=0.5;entryY=1;entryDx=0;entryDy=0;startArrow=classic;startFill=1;fillColor=#dae8fc;strokeColor=#6c8ebf;strokeWidth=2;" edge="1" parent="1" source="nnQvtGdqVhCBiGd7Ad1P-7" target="nnQvtGdqVhCBiGd7Ad1P-11">
          <mxGeometry width="50" height="50" relative="1" as="geometry">
            <mxPoint x="570" y="410" as="sourcePoint" />
            <mxPoint x="620" y="360" as="targetPoint" />
            <Array as="points">
              <mxPoint x="610" y="460" />
            </Array>
          </mxGeometry>
        </mxCell>
        <mxCell id="nnQvtGdqVhCBiGd7Ad1P-15" value="&lt;font style=&quot;font-size: 14px;&quot;&gt;&lt;b&gt;časovač&lt;/b&gt;&lt;/font&gt;" style="rounded=0;whiteSpace=wrap;html=1;fillColor=#f5f5f5;fontColor=#333333;strokeColor=#666666;strokeWidth=2;" vertex="1" parent="1">
          <mxGeometry x="460" y="260" width="80" height="40" as="geometry" />
        </mxCell>
        <mxCell id="nnQvtGdqVhCBiGd7Ad1P-17" style="edgeStyle=orthogonalEdgeStyle;rounded=0;orthogonalLoop=1;jettySize=auto;html=1;exitX=0.5;exitY=1;exitDx=0;exitDy=0;startArrow=classic;startFill=1;endArrow=none;endFill=1;strokeWidth=2;" edge="1" parent="1" source="nnQvtGdqVhCBiGd7Ad1P-15">
          <mxGeometry relative="1" as="geometry">
            <mxPoint x="495" y="319.9999999999999" as="sourcePoint" />
            <mxPoint x="625" y="400" as="targetPoint" />
            <Array as="points">
              <mxPoint x="500" y="340" />
              <mxPoint x="625" y="340" />
            </Array>
          </mxGeometry>
        </mxCell>
        <mxCell id="nnQvtGdqVhCBiGd7Ad1P-18" value="&lt;font style=&quot;font-size: 14px;&quot;&gt;&lt;b&gt;LDO&lt;/b&gt;&lt;/font&gt;" style="rounded=0;whiteSpace=wrap;html=1;fillColor=#f8cecc;strokeColor=#b85450;strokeWidth=2;" vertex="1" parent="1">
          <mxGeometry x="80" y="280" width="160" height="40" as="geometry" />
        </mxCell>
        <mxCell id="nnQvtGdqVhCBiGd7Ad1P-20" value="" style="endArrow=classic;html=1;rounded=0;exitX=1;exitY=0.5;exitDx=0;exitDy=0;entryX=0;entryY=0.214;entryDx=0;entryDy=0;entryPerimeter=0;fillColor=#f8cecc;strokeColor=#b85450;strokeWidth=2;" edge="1" parent="1" source="nnQvtGdqVhCBiGd7Ad1P-18" target="nnQvtGdqVhCBiGd7Ad1P-1">
          <mxGeometry width="50" height="50" relative="1" as="geometry">
            <mxPoint x="520" y="400" as="sourcePoint" />
            <mxPoint x="570" y="350" as="targetPoint" />
          </mxGeometry>
        </mxCell>
        <mxCell id="nnQvtGdqVhCBiGd7Ad1P-22" value="&lt;font style=&quot;font-size: 14px;&quot;&gt;&lt;b&gt;baterie 5V&lt;/b&gt;&lt;/font&gt;" style="rounded=0;whiteSpace=wrap;html=1;fillColor=#f8cecc;strokeColor=#b85450;strokeWidth=2;" vertex="1" parent="1">
          <mxGeometry x="80" y="200" width="160" height="40" as="geometry" />
        </mxCell>
        <mxCell id="nnQvtGdqVhCBiGd7Ad1P-23" value="" style="endArrow=classic;html=1;rounded=0;exitX=0.5;exitY=1;exitDx=0;exitDy=0;entryX=0.5;entryY=0;entryDx=0;entryDy=0;fillColor=#f8cecc;strokeColor=#b85450;" edge="1" parent="1" source="nnQvtGdqVhCBiGd7Ad1P-22" target="nnQvtGdqVhCBiGd7Ad1P-18">
          <mxGeometry width="50" height="50" relative="1" as="geometry">
            <mxPoint x="450" y="260" as="sourcePoint" />
            <mxPoint x="500" y="210" as="targetPoint" />
          </mxGeometry>
        </mxCell>
        <mxCell id="nnQvtGdqVhCBiGd7Ad1P-24" value="&lt;font style=&quot;font-size: 14px;&quot;&gt;&lt;b&gt;PIC&lt;/b&gt;&lt;/font&gt;" style="rounded=0;whiteSpace=wrap;html=1;fillColor=#f5f5f5;fontColor=#333333;strokeColor=#666666;strokeWidth=2;" vertex="1" parent="1">
          <mxGeometry x="580" y="260" width="80" height="40" as="geometry" />
        </mxCell>
        <mxCell id="nnQvtGdqVhCBiGd7Ad1P-25" value="" style="endArrow=classic;html=1;rounded=0;exitX=1;exitY=0.5;exitDx=0;exitDy=0;entryX=0;entryY=0.5;entryDx=0;entryDy=0;" edge="1" parent="1" source="nnQvtGdqVhCBiGd7Ad1P-15" target="nnQvtGdqVhCBiGd7Ad1P-24">
          <mxGeometry width="50" height="50" relative="1" as="geometry">
            <mxPoint x="600" y="410" as="sourcePoint" />
            <mxPoint x="650" y="360" as="targetPoint" />
          </mxGeometry>
        </mxCell>
        <mxCell id="nnQvtGdqVhCBiGd7Ad1P-26" value="" style="endArrow=classic;html=1;rounded=0;exitX=0.75;exitY=1;exitDx=0;exitDy=0;entryX=0.872;entryY=-0.001;entryDx=0;entryDy=0;entryPerimeter=0;strokeWidth=2;" edge="1" parent="1" source="nnQvtGdqVhCBiGd7Ad1P-24" target="nnQvtGdqVhCBiGd7Ad1P-11">
          <mxGeometry width="50" height="50" relative="1" as="geometry">
            <mxPoint x="550" y="310" as="sourcePoint" />
            <mxPoint x="590" y="310" as="targetPoint" />
          </mxGeometry>
        </mxCell>
        <mxCell id="nnQvtGdqVhCBiGd7Ad1P-28" value="" style="shape=flexArrow;endArrow=classic;html=1;rounded=0;strokeColor=#000000;strokeWidth=2;" edge="1" parent="1">
          <mxGeometry width="50" height="50" relative="1" as="geometry">
            <mxPoint x="559.58" y="190" as="sourcePoint" />
            <mxPoint x="559.58" y="230" as="targetPoint" />
          </mxGeometry>
        </mxCell>
        <mxCell id="nnQvtGdqVhCBiGd7Ad1P-29" value="&lt;b&gt;&lt;font style=&quot;color: rgb(0, 0, 0); font-size: 18px;&quot;&gt;mikrořadič (MCU)&lt;/font&gt;&lt;/b&gt;" style="text;html=1;align=center;verticalAlign=middle;whiteSpace=wrap;rounded=0;" vertex="1" parent="1">
          <mxGeometry x="470" y="150" width="180" height="40" as="geometry" />
        </mxCell>
        <mxCell id="nnQvtGdqVhCBiGd7Ad1P-30" value="&lt;font style=&quot;font-size: 14px;&quot;&gt;&lt;b style=&quot;&quot;&gt;komponenty pro práci s časovými značkami&lt;/b&gt;&lt;/font&gt;" style="text;html=1;align=center;verticalAlign=middle;whiteSpace=wrap;rounded=0;fontColor=#6C8EBF;" vertex="1" parent="1">
          <mxGeometry x="240" y="410" width="200" height="50" as="geometry" />
        </mxCell>
        <mxCell id="nnQvtGdqVhCBiGd7Ad1P-31" value="&lt;font style=&quot;font-size: 14px;&quot;&gt;&lt;b&gt;měření teploty&lt;/b&gt;&lt;/font&gt;" style="text;html=1;align=center;verticalAlign=middle;whiteSpace=wrap;rounded=0;fillColor=none;strokeColor=none;fontColor=#82B366;" vertex="1" parent="1">
          <mxGeometry x="240" y="350" width="200" height="30" as="geometry" />
        </mxCell>
        <mxCell id="nnQvtGdqVhCBiGd7Ad1P-32" value="&lt;font style=&quot;font-size: 14px;&quot;&gt;&lt;b&gt;napájení záznamníku&lt;/b&gt;&lt;/font&gt;" style="text;html=1;align=center;verticalAlign=middle;whiteSpace=wrap;rounded=0;fillColor=none;strokeColor=none;fontColor=#B85450;" vertex="1" parent="1">
          <mxGeometry x="240" y="270" width="200" height="30" as="geometry" />
        </mxCell>
        <mxCell id="nnQvtGdqVhCBiGd7Ad1P-33" value="" style="endArrow=classic;startArrow=classic;html=1;rounded=0;entryX=0;entryY=0.5;entryDx=0;entryDy=0;fillColor=#fff2cc;strokeColor=#d6b656;strokeWidth=2;" edge="1" parent="1" target="nnQvtGdqVhCBiGd7Ad1P-9">
          <mxGeometry width="50" height="50" relative="1" as="geometry">
            <mxPoint x="650" y="420" as="sourcePoint" />
            <mxPoint x="620" y="370" as="targetPoint" />
          </mxGeometry>
        </mxCell>
        <mxCell id="nnQvtGdqVhCBiGd7Ad1P-34" value="&lt;font style=&quot;color: rgb(214, 182, 86); font-size: 14px;&quot;&gt;&lt;b&gt;&lt;font style=&quot;&quot;&gt;ukládání&amp;nbsp;&lt;/font&gt;&lt;span style=&quot;background-color: transparent;&quot;&gt;záznamů&amp;nbsp;&lt;/span&gt;&lt;/b&gt;&lt;/font&gt;&lt;div&gt;&lt;font style=&quot;color: rgb(214, 182, 86); font-size: 14px;&quot;&gt;&lt;b&gt;&lt;span style=&quot;background-color: transparent;&quot;&gt;na externí uložiště&lt;/span&gt;&lt;/b&gt;&lt;/font&gt;&lt;/div&gt;" style="text;html=1;align=center;verticalAlign=middle;whiteSpace=wrap;rounded=0;fillColor=none;strokeColor=none;fontColor=#82B366;" vertex="1" parent="1">
          <mxGeometry x="680" y="370" width="160" height="50" as="geometry" />
        </mxCell>
      </root>
    </mxGraphModel>
  </diagram>
</mxfile>
